<svg xmlns="http://www.w3.org/2000/svg" width="1440" height="820" viewBox="0 0 1440 820" role="img" aria-labelledby="title desc">
  <title id="title">Workbench Labs JSON workbench</title>
  <desc id="desc">A preview of the JSON Formatter and Validator with side-by-side input and formatted output.</desc>
  <defs>
    <linearGradient id="bg" x1="0" y1="0" x2="1" y2="1">
      <stop offset="0" stop-color="#f8fbfd"/>
      <stop offset="1" stop-color="#eef3f7"/>
    </linearGradient>
    <filter id="shadow" x="-20%" y="-20%" width="140%" height="140%">
      <feDropShadow dx="0" dy="10" stdDeviation="18" flood-color="#0f172a" flood-opacity="0.12"/>
    </filter>
  </defs>
  <rect width="1440" height="820" fill="url(#bg)"/>
  <rect x="28" y="32" width="1384" height="756" rx="18" fill="#ffffff" filter="url(#shadow)"/>
  <rect x="28" y="32" width="278" height="756" rx="18" fill="#f6f8fa"/>
  <circle cx="54" cy="57" r="7" fill="#ff5f57"/>
  <circle cx="76" cy="57" r="7" fill="#febc2e"/>
  <circle cx="98" cy="57" r="7" fill="#28c840"/>
  <rect x="48" y="92" width="238" height="28" rx="14" fill="#e8ecef"/>
  <text x="75" y="111" font-family="-apple-system,BlinkMacSystemFont,Segoe UI,sans-serif" font-size="13" fill="#6b7280">Search JSON</text>
  <rect x="92" y="146" width="38" height="38" rx="9" fill="#07111f"/>
  <circle cx="111" cy="165" r="12" fill="none" stroke="#22d3ee" stroke-width="2"/>
  <path d="M105 166 L111 171 L119 158" fill="none" stroke="#a7f3d0" stroke-width="2" stroke-linecap="round" stroke-linejoin="round"/>
  <text x="144" y="166" font-family="-apple-system,BlinkMacSystemFont,Segoe UI,sans-serif" font-size="17" font-weight="700" fill="#111827">Workbench Labs</text>
  <text x="144" y="184" font-family="-apple-system,BlinkMacSystemFont,Segoe UI,sans-serif" font-size="12" fill="#6b7280">Native local workbench</text>
  <text x="48" y="226" font-family="-apple-system,BlinkMacSystemFont,Segoe UI,sans-serif" font-size="12" font-weight="700" fill="#9ca3af">Format &amp; Convert</text>
  <rect x="42" y="242" width="250" height="48" rx="8" fill="#0a74ff"/>
  <text x="72" y="262" font-family="-apple-system,BlinkMacSystemFont,Segoe UI,sans-serif" font-size="14" font-weight="700" fill="#ffffff">JSON Formatter &amp; Validator</text>
  <text x="72" y="280" font-family="-apple-system,BlinkMacSystemFont,Segoe UI,sans-serif" font-size="11" fill="#dbeafe">Format, repair, minify, sort</text>
  <text x="48" y="326" font-family="-apple-system,BlinkMacSystemFont,Segoe UI,sans-serif" font-size="14" fill="#111827">HTML Beautifier &amp; Minifier</text>
  <text x="48" y="362" font-family="-apple-system,BlinkMacSystemFont,Segoe UI,sans-serif" font-size="14" fill="#111827">CSS Beautifier &amp; Minifier</text>
  <text x="48" y="398" font-family="-apple-system,BlinkMacSystemFont,Segoe UI,sans-serif" font-size="14" fill="#111827">JavaScript Beautifier &amp; Minifier</text>
  <text x="48" y="434" font-family="-apple-system,BlinkMacSystemFont,Segoe UI,sans-serif" font-size="14" fill="#111827">XML Beautifier &amp; Minifier</text>
  <text x="48" y="470" font-family="-apple-system,BlinkMacSystemFont,Segoe UI,sans-serif" font-size="14" fill="#111827">YAML to JSON Converter</text>
  <text x="48" y="506" font-family="-apple-system,BlinkMacSystemFont,Segoe UI,sans-serif" font-size="14" fill="#111827">JSON to YAML Converter</text>
  <text x="48" y="542" font-family="-apple-system,BlinkMacSystemFont,Segoe UI,sans-serif" font-size="14" fill="#111827">SQL Formatter</text>
  <rect x="306" y="32" width="1106" height="64" fill="#ffffff"/>
  <text x="338" y="69" font-family="-apple-system,BlinkMacSystemFont,Segoe UI,sans-serif" font-size="18" font-weight="700" fill="#111827">Workbench Labs</text>
  <rect x="306" y="96" width="1106" height="64" fill="#f7fbff"/>
  <rect x="338" y="118" width="36" height="36" rx="8" fill="#e7f2ee" stroke="#cbd5e1"/>
  <text x="392" y="137" font-family="-apple-system,BlinkMacSystemFont,Segoe UI,sans-serif" font-size="18" font-weight="700" fill="#111827">JSON Formatter &amp; Validator</text>
  <text x="392" y="157" font-family="-apple-system,BlinkMacSystemFont,Segoe UI,sans-serif" font-size="13" fill="#6b7280">Validate, format, repair, minify, and normalize JSON without leaving the app.</text>
  <rect x="1278" y="116" width="96" height="30" rx="8" fill="#edf1f4"/>
  <text x="1306" y="136" font-family="-apple-system,BlinkMacSystemFont,Segoe UI,sans-serif" font-size="12" fill="#111827">Continuous</text>
  <line x1="306" y1="160" x2="1412" y2="160" stroke="#d9dee4"/>
  <text x="338" y="194" font-family="-apple-system,BlinkMacSystemFont,Segoe UI,sans-serif" font-size="14" font-weight="700" fill="#111827">Input:</text>
  <rect x="398" y="176" width="42" height="28" rx="7" fill="#edf1f4"/>
  <text x="414" y="195" font-family="-apple-system,BlinkMacSystemFont,Segoe UI,sans-serif" font-size="14" fill="#111827">*</text>
  <rect x="452" y="176" width="98" height="28" rx="7" fill="#edf1f4"/>
  <text x="473" y="195" font-family="-apple-system,BlinkMacSystemFont,Segoe UI,sans-serif" font-size="13" fill="#111827">Clipboard</text>
  <rect x="562" y="176" width="78" height="28" rx="7" fill="#edf1f4"/>
  <text x="584" y="195" font-family="-apple-system,BlinkMacSystemFont,Segoe UI,sans-serif" font-size="13" fill="#111827">Sample</text>
  <rect x="652" y="176" width="68" height="28" rx="7" fill="#edf1f4"/>
  <text x="674" y="195" font-family="-apple-system,BlinkMacSystemFont,Segoe UI,sans-serif" font-size="13" fill="#111827">Clear</text>
  <rect x="738" y="176" width="82" height="28" rx="7" fill="#edf1f4"/>
  <text x="763" y="195" font-family="-apple-system,BlinkMacSystemFont,Segoe UI,sans-serif" font-size="13" fill="#111827">JSON</text>
  <text x="878" y="194" font-family="-apple-system,BlinkMacSystemFont,Segoe UI,sans-serif" font-size="14" font-weight="700" fill="#111827">Output:</text>
  <text x="1002" y="194" font-family="-apple-system,BlinkMacSystemFont,Segoe UI,sans-serif" font-size="12" fill="#6b7280">parser: json  valid: true</text>
  <rect x="1246" y="176" width="104" height="28" rx="7" fill="#edf1f4"/>
  <text x="1274" y="195" font-family="-apple-system,BlinkMacSystemFont,Segoe UI,sans-serif" font-size="13" fill="#111827">2 spaces</text>
  <rect x="1358" y="176" width="46" height="28" rx="7" fill="#edf1f4"/>
  <text x="1372" y="195" font-family="-apple-system,BlinkMacSystemFont,Segoe UI,sans-serif" font-size="13" fill="#111827">Copy</text>
  <rect x="338" y="220" width="500" height="520" rx="8" fill="#eef2f5" stroke="#ccd3db"/>
  <rect x="878" y="220" width="500" height="520" rx="8" fill="#eef2f5" stroke="#ccd3db"/>
  <text x="358" y="254" font-family="SFMono-Regular,Menlo,monospace" font-size="15" fill="#111827">{"name":"WorkbenchLabs","tools":[1,2,3]}</text>
  <text x="900" y="254" font-family="SFMono-Regular,Menlo,monospace" font-size="15" fill="#111827">{</text>
  <text x="922" y="286" font-family="SFMono-Regular,Menlo,monospace" font-size="15" fill="#111827">"name": "WorkbenchLabs",</text>
  <text x="922" y="318" font-family="SFMono-Regular,Menlo,monospace" font-size="15" fill="#111827">"tools": [</text>
  <text x="954" y="350" font-family="SFMono-Regular,Menlo,monospace" font-size="15" fill="#111827">1,</text>
  <text x="954" y="382" font-family="SFMono-Regular,Menlo,monospace" font-size="15" fill="#111827">2,</text>
  <text x="954" y="414" font-family="SFMono-Regular,Menlo,monospace" font-size="15" fill="#111827">3</text>
  <text x="922" y="446" font-family="SFMono-Regular,Menlo,monospace" font-size="15" fill="#111827">]</text>
  <text x="900" y="478" font-family="SFMono-Regular,Menlo,monospace" font-size="15" fill="#111827">}</text>
  <rect x="338" y="742" width="500" height="22" rx="0" fill="#f8fafc" stroke="#ccd3db"/>
  <text x="354" y="758" font-family="-apple-system,BlinkMacSystemFont,Segoe UI,sans-serif" font-size="11" fill="#6b7280">Editable  1 line  35 characters</text>
  <rect x="878" y="742" width="500" height="22" rx="0" fill="#f8fafc" stroke="#ccd3db"/>
  <text x="894" y="758" font-family="-apple-system,BlinkMacSystemFont,Segoe UI,sans-serif" font-size="11" fill="#6b7280">Read-only  8 lines  62 characters</text>
</svg>
